<svg xmlns="http://www.w3.org/2000/svg" width="" height="" viewBox="0 0 646 576.001" x="0px" y="0px" preserveAspectRatio="none">
  <path id="Subtraction_1" data-name="Subtraction 1" d="M646,576H0V0H646V576ZM191.814,1c-63.3.006-111.449,24.146-143.1,71.75S1,192.764,1,287.963,17.049,455.588,48.7,503.19s79.8,71.739,143.113,71.736,143.562-24.14,238.518-71.741c71.221-35.7,125.388-71.909,161-107.611S645,323.666,645,287.963,626.94,216.055,591.33,180.352s-89.778-71.908-161-107.611c-47.483-23.8-91.616-41.906-131.173-53.806S223.489,1,191.837,1Z" fill="#fff"/>
</svg>
