<svg xmlns="http://www.w3.org/2000/svg" width="" height="" viewBox="0 0 1923 341" preserveAspectRatio="xMidYMin slice">
  <defs>
    <style>
      .cls-1 {
        fill: #fff;
        fill-rule: evenodd;
      }
    </style>
  </defs>
  <path class="cls-1" d="M1924,77s-51.35-45.881-126-54-120.91,3.9-127,5-111,31-111,31-67.32,18.876-86,21a517.553,517.553,0,0,1-59,8s-43.08,2.478-69-2c0,0-27.95-2.09-67-16,0,0-57.72-25.908-68-28,0,0-46.02-17.843-85-26,0,0-47.02-9.378-64-11,0,0-53.33-4.887-76-4,0,0-54.517,2.23-83,7,0,0-64.011,12.524-82,19,0,0-46.8,15.035-74,28,0,0-54.813,20.727-66,23,0,0-52.281,16.007-87,15,0,0-48.825,2.205-85-12,0,0-59.768-18.252-72-24,0,0-75.149-22.231-106-26,0,0-57.034-9.637-92-10,0,0-65.89-3.173-86,2,0,0-50.285,5.52-67,13,0,0-52.574,13.872-86,45V0H1926Z"/>
</svg>
