		<svg xmlns="http://www.w3.org/2000/svg" width="" height="" viewBox="0 0 1922 1072" x="0px" y="0px" preserveAspectRatio="none">
  <defs>
    <style>
      .cls-1 {
        fill: #fff;
        fill-rule: evenodd;
      }
    </style>
  </defs>
  <path class="cls-1" d="M2,1072s6.407-39,49-102,95-91,95-91,45.188-31.277,118-34,110,15,110,15a194.6,194.6,0,0,0,31,10c16.459,3.682,37,7,37,7h9l10,1s28.761,1.17,58-10c0,0,33.618-9.816,58-55,0,0,6.612-11.677,14-42s21.557-56.686,24-60,24.105-53.838,75-77,94.127-16.621,117-12,25.2,9.988,58,14c0,0,16.584,3.634,43,1,0,0,39.188-3.911,59-35,0,0,12.109-16.148,15-54s-0.128-54.11,2-68,10.445-69.539,19-88,13.44-58.763,66-127,139.65-106.49,180-118,112.74-27.842,173-25c0,0,113.85,3.574,133,1,0,0,71.57-1.445,136-18s130.24-44.053,137-48c0,0,55.7-27.461,95-56V1072H2Z"/>
</svg>
