<svg xmlns="http://www.w3.org/2000/svg" width="" height="" viewBox="0 0 1920 761.537" x="0px" y="0px" preserveAspectRatio="none">
  <path id="Exclusion_1" data-name="Exclusion 1" d="M1904.195,761.537c-5.074,0-10.066-.148-14.836-.44h30.608C1914.564,761.39,1909.257,761.537,1904.195,761.537Zm-424.657-.025h-.01c-4.081,0-8.2-.14-12.257-.414h24.574C1487.734,761.373,1483.594,761.512,1479.537,761.512Zm409.791-.414H1491.844a198.036,198.036,0,0,0,38.251-6.473,236.842,236.842,0,0,0,33.256-11.81c20.349-8.929,36.731-19.14,48.692-26.6,6.988-4.356,12.5-7.795,15.957-9.123,9.25-3.558,18.141-6.678,26.427-9.275,8.041-2.519,15.768-4.626,22.968-6.26,6.957-1.58,13.652-2.771,19.9-3.541a141.69,141.69,0,0,1,17.221-1.115,98.515,98.515,0,0,1,23.371,2.627,85.946,85.946,0,0,1,18.971,7.027c11.556,5.867,21.255,13.77,31.523,22.137l.058.048c2.2,1.792,4.474,3.646,6.768,5.477,10.382,8.291,22.068,16.9,37.154,23.711,16.685,7.531,35.319,11.837,56.966,13.164Zm-422.058,0H0V.1H804.95l0-.1L1920,.1H804.95c.04,1.037.442,10.551,2.35,24.731,1.089,8.095,2.463,16.151,4.085,23.944,2.007,9.646,4.405,18.929,7.128,27.591,6.88,21.889,15.861,40.024,26.694,53.9a94.147,94.147,0,0,0,21.221,20.2,77.25,77.25,0,0,0,12.941,7.077A76.019,76.019,0,0,0,894,162.1a306.231,306.231,0,0,1,31.586,8.029,152.208,152.208,0,0,1,23.227,9.353c12.338,6.36,20.853,13.794,26.033,22.725,4.5,7.765,6.587,16.711,6.559,28.157-.025,10.3-1.764,21.648-3.6,33.665l0,.012c-3.252,21.219-6.937,45.269-2.817,72.253,4.76,31.18,19.159,60.555,44.02,89.8a166.3,166.3,0,0,1,12.627,16.838,135.007,135.007,0,0,1,9.1,16.274,119.768,119.768,0,0,1,6.08,15.744,118.346,118.346,0,0,1,3.569,15.247c3.313,20.013,1.3,38.656-.638,56.685-2.145,19.907-4.17,38.707,1.386,56.912a74.941,74.941,0,0,0,14.953,26.918,109.079,109.079,0,0,0,13.491,13.235A164.812,164.812,0,0,0,1098,657.1c16.227,10.07,35.634,14.76,61.073,14.76,15.524,0,31.61-1.705,47.167-3.354l.257-.027c15.431-1.635,31.386-3.326,46.409-3.326a157.436,157.436,0,0,1,19.272,1.085,105.273,105.273,0,0,1,18.286,3.8,83.007,83.007,0,0,1,17.03,7.346A79.2,79.2,0,0,1,1323,689.1a325.546,325.546,0,0,0,38.307,31.965,246.941,246.941,0,0,0,37.021,21.715,202.894,202.894,0,0,0,35.424,12.875,184.036,184.036,0,0,0,33.489,5.445h.028Z" transform="translate(0 0)" fill="#fff"/>
</svg>
